<?xml version="1.0" encoding="UTF-8"?>
<svg xmlns="http://www.w3.org/2000/svg" viewBox="0 0 1410 392" width="1410" height="392" role="img" aria-label="BasketEvidence logo">
  <title>BasketEvidence logo</title>
  <g fill-rule="evenodd" clip-rule="evenodd">
    <path fill="#FF6F00" d="M 117 166 L 117 168 L 114 173 L 114 175 L 112 179 L 112 183 L 111 184 L 111 189 L 112 190 L 114 190 L 117 192 L 119 192 L 126 195 L 130 195 L 131 196 L 135 196 L 136 197 L 142 197 L 143 198 L 154 198 L 155 199 L 174 199 L 175 198 L 174 197 L 173 191 L 166 180 L 156 171 L 147 165 L 137 160 L 135 160 L 131 158 L 128 158 L 127 157 L 123 157 Z M 131 148 L 131 149 L 134 149 L 151 157 L 153 159 L 162 164 L 178 181 L 183 191 L 184 198 L 186 198 L 187 197 L 195 197 L 194 181 L 193 180 L 192 173 L 190 170 L 189 165 L 178 147 L 164 134 L 160 134 L 159 135 L 156 135 L 155 136 L 147 138 L 139 142 Z M 111 200 L 113 210 L 119 224 L 122 227 L 124 231 L 130 237 L 135 237 L 136 236 L 144 235 L 158 228 L 168 219 L 174 209 L 174 207 L 172 208 L 140 207 L 139 206 L 128 205 L 127 204 L 124 204 L 123 203 L 120 203 L 119 202 Z M 195 206 L 184 207 L 180 218 L 175 225 L 168 232 L 167 232 L 163 236 L 152 242 L 141 245 L 148 249 L 150 249 L 157 252 L 161 252 L 162 253 L 176 253 L 184 244 L 191 230 L 193 220 L 194 219 Z M 177 134 L 186 143 L 193 153 L 199 166 L 199 168 L 201 172 L 201 175 L 203 179 L 203 184 L 204 185 L 204 195 L 208 194 L 209 193 L 209 180 L 210 179 L 210 174 L 211 173 L 211 169 L 212 168 L 212 163 L 213 162 L 213 157 L 214 156 L 214 150 L 208 145 L 196 138 L 194 138 L 184 134 Z M 209 204 L 205 204 L 204 205 L 204 216 L 203 217 L 203 221 L 202 222 L 201 229 L 200 230 L 199 235 L 197 238 L 197 240 L 191 250 L 197 247 L 199 247 L 203 244 L 206 243 L 216 234 L 216 232 L 214 228 L 214 225 L 211 219 Z M 223 161 L 222 161 L 222 165 L 221 166 L 221 169 L 219 174 L 219 180 L 218 181 L 218 192 L 228 189 L 232 186 L 231 185 L 231 180 L 230 179 L 229 173 Z M 232 197 L 222 201 L 219 201 L 218 202 L 219 212 L 220 213 L 223 224 L 224 224 L 228 216 L 228 214 L 230 210 L 230 207 L 231 206 L 231 200 L 232 199 Z"/>
    <path fill="#000000" d="M 165 28 L 164 29 L 161 29 L 152 34 L 148 37 L 138 48 L 132 57 L 130 62 L 128 64 L 125 70 L 125 72 L 121 79 L 121 81 L 119 84 L 119 86 L 117 90 L 112 89 L 105 86 L 102 86 L 101 85 L 98 85 L 93 83 L 89 83 L 88 82 L 65 80 L 64 81 L 56 81 L 55 82 L 52 82 L 51 83 L 46 84 L 38 89 L 33 95 L 29 105 L 29 122 L 30 123 L 30 127 L 32 131 L 32 134 L 37 144 L 37 146 L 40 150 L 43 157 L 56 176 L 65 186 L 66 189 L 57 199 L 48 211 L 43 220 L 41 222 L 33 238 L 33 240 L 30 247 L 30 250 L 29 251 L 29 255 L 28 256 L 28 268 L 29 269 L 30 275 L 34 282 L 41 288 L 53 293 L 57 293 L 58 294 L 80 294 L 81 293 L 86 293 L 87 292 L 96 291 L 97 290 L 100 290 L 101 289 L 104 289 L 105 288 L 110 287 L 112 290 L 113 297 L 115 300 L 115 302 L 116 303 L 118 311 L 121 316 L 121 318 L 126 328 L 136 343 L 151 357 L 162 362 L 166 362 L 167 363 L 176 363 L 177 362 L 184 361 L 193 356 L 203 347 L 203 346 L 210 338 L 222 316 L 222 314 L 226 306 L 226 304 L 228 300 L 228 297 L 230 294 L 230 291 L 232 287 L 237 288 L 238 289 L 241 289 L 242 290 L 245 290 L 246 291 L 255 292 L 256 293 L 263 293 L 264 294 L 283 294 L 284 293 L 289 293 L 301 288 L 304 286 L 311 278 L 311 276 L 313 273 L 313 270 L 314 269 L 314 254 L 313 253 L 313 249 L 312 248 L 312 245 L 311 244 L 310 239 L 300 219 L 288 202 L 276 189 L 276 188 L 281 183 L 281 182 L 292 169 L 297 160 L 299 158 L 300 155 L 302 153 L 307 143 L 307 141 L 309 138 L 309 136 L 313 126 L 313 122 L 314 121 L 314 105 L 313 104 L 313 101 L 309 93 L 304 88 L 297 84 L 295 84 L 291 82 L 288 82 L 287 81 L 279 81 L 278 80 L 260 81 L 259 82 L 254 82 L 253 83 L 249 83 L 248 84 L 240 85 L 239 86 L 233 87 L 226 90 L 224 87 L 223 82 L 216 68 L 216 66 L 214 62 L 202 44 L 194 36 L 182 29 L 179 29 L 178 28 Z M 381 144 L 381 162 L 380 163 L 380 165 L 381 166 L 381 183 L 380 184 L 380 188 L 381 189 L 380 190 L 380 193 L 381 194 L 381 225 L 380 226 L 381 244 L 380 245 L 381 246 L 427 246 L 428 245 L 433 245 L 443 241 L 451 234 L 454 228 L 455 221 L 456 220 L 456 212 L 452 202 L 446 196 L 439 193 L 440 191 L 443 190 L 448 185 L 451 179 L 452 168 L 451 167 L 451 163 L 449 158 L 442 150 L 430 145 L 424 145 L 423 144 Z M 171 265 L 179 269 L 181 269 L 186 272 L 188 272 L 194 275 L 199 276 L 202 278 L 219 283 L 221 285 L 218 292 L 218 295 L 217 296 L 216 301 L 212 309 L 212 311 L 205 325 L 199 334 L 189 345 L 183 349 L 176 352 L 167 352 L 158 348 L 145 336 L 138 326 L 129 308 L 129 306 L 127 303 L 127 301 L 123 291 L 123 288 L 122 287 L 122 284 L 123 283 L 128 282 L 131 280 L 134 280 L 137 278 L 150 274 L 153 272 L 155 272 L 158 270 L 160 270 Z M 1072 144 L 1054 144 L 1054 180 L 1053 181 L 1048 176 L 1042 173 L 1039 173 L 1038 172 L 1025 172 L 1013 178 L 1007 185 L 1003 193 L 1002 200 L 1001 201 L 1001 218 L 1002 219 L 1003 226 L 1006 233 L 1009 237 L 1017 244 L 1022 246 L 1025 246 L 1026 247 L 1039 247 L 1047 244 L 1054 237 L 1055 238 L 1055 246 L 1072 246 Z M 282 91 L 283 92 L 287 92 L 288 93 L 293 94 L 300 100 L 303 107 L 303 119 L 302 120 L 302 124 L 301 125 L 300 130 L 298 133 L 297 138 L 294 144 L 292 146 L 289 153 L 276 171 L 268 180 L 259 171 L 258 171 L 239 154 L 239 147 L 238 146 L 237 135 L 236 134 L 236 130 L 235 129 L 235 124 L 234 123 L 233 115 L 232 114 L 232 111 L 231 110 L 231 107 L 230 106 L 229 101 L 231 99 L 233 99 L 237 97 L 240 97 L 241 96 L 244 96 L 249 94 L 253 94 L 254 93 L 258 93 L 259 92 L 266 92 L 267 91 Z M 61 91 L 75 91 L 76 92 L 82 92 L 83 93 L 87 93 L 88 94 L 92 94 L 93 95 L 104 97 L 114 101 L 113 106 L 112 107 L 112 110 L 111 111 L 111 114 L 110 115 L 110 118 L 109 119 L 108 127 L 107 128 L 103 155 L 95 161 L 87 169 L 86 169 L 75 180 L 69 174 L 52 150 L 44 134 L 44 132 L 41 125 L 41 122 L 40 121 L 40 106 L 42 103 L 42 101 L 48 95 L 52 93 L 60 92 Z M 75 197 L 98 220 L 102 223 L 103 244 L 104 245 L 104 252 L 105 253 L 105 259 L 106 260 L 106 265 L 107 266 L 108 276 L 107 277 L 100 278 L 96 280 L 86 281 L 85 282 L 80 282 L 79 283 L 58 283 L 57 282 L 54 282 L 49 280 L 42 274 L 39 266 L 39 257 L 40 256 L 40 252 L 41 251 L 43 243 L 51 227 L 61 212 L 70 202 L 70 201 L 74 197 Z M 268 197 L 272 200 L 289 223 L 299 242 L 299 244 L 301 247 L 301 250 L 303 254 L 303 268 L 301 272 L 295 279 L 284 283 L 264 283 L 263 282 L 251 281 L 250 280 L 247 280 L 246 279 L 243 279 L 242 278 L 239 278 L 234 276 L 235 268 L 236 267 L 236 262 L 237 261 L 237 256 L 238 255 L 239 239 L 240 238 L 240 232 L 241 231 L 241 223 Z M 820 144 L 820 246 L 884 246 L 884 229 L 841 229 L 840 228 L 840 204 L 841 203 L 877 203 L 878 202 L 878 187 L 841 187 L 840 186 L 840 163 L 839 162 L 841 160 L 884 160 L 884 145 L 883 144 Z M 169 39 L 178 40 L 182 42 L 195 54 L 203 66 L 210 80 L 210 82 L 215 93 L 212 95 L 205 97 L 198 101 L 196 101 L 185 107 L 183 107 L 179 110 L 175 111 L 173 113 L 170 113 L 142 99 L 132 96 L 128 93 L 133 82 L 133 80 L 141 64 L 146 58 L 148 54 L 158 44 L 165 40 L 168 40 Z M 477 177 L 471 183 L 469 187 L 468 194 L 467 195 L 468 196 L 484 196 L 486 191 L 489 188 L 493 186 L 503 186 L 504 187 L 506 187 L 510 191 L 511 196 L 512 197 L 512 199 L 511 200 L 512 201 L 511 202 L 504 202 L 503 203 L 488 203 L 487 204 L 483 204 L 473 208 L 468 213 L 465 221 L 465 230 L 468 238 L 473 243 L 483 247 L 497 247 L 498 246 L 501 246 L 508 242 L 511 239 L 512 240 L 512 245 L 513 246 L 530 246 L 530 194 L 529 193 L 529 189 L 526 183 L 517 175 L 515 175 L 512 173 L 508 173 L 507 172 L 491 172 L 490 173 L 483 174 Z M 712 172 L 711 173 L 705 174 L 698 178 L 690 187 L 686 196 L 685 206 L 684 207 L 686 224 L 691 234 L 701 243 L 712 247 L 728 247 L 729 246 L 732 246 L 733 245 L 738 244 L 743 241 L 749 235 L 753 225 L 751 225 L 750 224 L 739 224 L 738 223 L 736 223 L 733 228 L 729 231 L 719 233 L 718 232 L 714 232 L 710 230 L 706 226 L 703 219 L 703 216 L 704 215 L 753 215 L 754 214 L 754 202 L 753 201 L 753 197 L 752 196 L 752 193 L 748 185 L 740 177 L 734 174 L 728 173 L 727 172 Z M 1333 174 L 1327 177 L 1319 185 L 1314 196 L 1314 200 L 1313 201 L 1313 219 L 1314 220 L 1314 223 L 1315 224 L 1316 229 L 1318 233 L 1327 242 L 1333 245 L 1339 246 L 1340 247 L 1355 247 L 1356 246 L 1363 245 L 1370 241 L 1377 234 L 1381 225 L 1377 225 L 1376 224 L 1366 224 L 1364 223 L 1357 231 L 1351 232 L 1350 233 L 1346 233 L 1338 230 L 1334 226 L 1332 222 L 1331 216 L 1332 215 L 1381 215 L 1381 200 L 1380 199 L 1379 192 L 1374 183 L 1369 178 L 1362 174 L 1356 173 L 1355 172 L 1340 172 L 1339 173 Z M 1110 172 L 1109 173 L 1106 173 L 1103 175 L 1101 175 L 1095 179 L 1086 191 L 1086 193 L 1084 197 L 1084 200 L 1083 201 L 1083 218 L 1084 219 L 1084 223 L 1085 224 L 1086 229 L 1089 234 L 1099 243 L 1110 247 L 1126 247 L 1127 246 L 1133 245 L 1142 240 L 1147 234 L 1151 225 L 1134 223 L 1131 228 L 1127 231 L 1122 232 L 1121 233 L 1116 233 L 1108 230 L 1104 226 L 1101 219 L 1101 216 L 1102 215 L 1150 215 L 1151 214 L 1151 199 L 1150 198 L 1149 192 L 1145 184 L 1136 176 L 1125 172 Z M 615 144 L 615 246 L 633 246 L 633 226 L 642 216 L 644 217 L 650 228 L 662 246 L 682 246 L 680 241 L 676 236 L 675 233 L 672 230 L 669 224 L 655 203 L 660 196 L 670 186 L 670 185 L 681 173 L 659 173 L 634 202 L 633 201 L 633 144 Z M 1219 177 L 1209 172 L 1195 172 L 1194 173 L 1189 174 L 1181 180 L 1180 179 L 1181 178 L 1180 177 L 1181 173 L 1162 173 L 1162 246 L 1180 246 L 1181 245 L 1181 197 L 1183 193 L 1187 189 L 1192 188 L 1193 187 L 1198 187 L 1203 189 L 1208 195 L 1208 198 L 1209 199 L 1209 246 L 1227 246 L 1227 191 L 1224 183 Z M 557 174 L 550 178 L 546 182 L 544 186 L 544 188 L 543 189 L 543 200 L 544 201 L 544 203 L 550 210 L 558 214 L 566 215 L 567 216 L 572 216 L 573 217 L 577 217 L 582 219 L 585 222 L 586 227 L 585 229 L 580 233 L 570 234 L 569 233 L 564 232 L 560 228 L 558 223 L 547 223 L 546 224 L 541 224 L 541 227 L 542 228 L 543 233 L 551 242 L 557 245 L 563 246 L 564 247 L 581 247 L 582 246 L 585 246 L 593 243 L 600 237 L 603 231 L 604 221 L 603 220 L 603 217 L 601 212 L 598 209 L 591 205 L 589 205 L 585 203 L 582 203 L 581 202 L 577 202 L 576 201 L 572 201 L 571 200 L 565 199 L 561 195 L 561 190 L 567 185 L 577 185 L 581 187 L 584 190 L 585 194 L 601 194 L 602 193 L 602 190 L 599 183 L 590 175 L 588 175 L 584 173 L 581 173 L 580 172 L 564 172 L 563 173 Z M 1261 173 L 1251 178 L 1245 184 L 1240 193 L 1240 196 L 1238 201 L 1238 219 L 1239 220 L 1239 223 L 1240 224 L 1241 229 L 1244 234 L 1254 243 L 1265 247 L 1280 247 L 1281 246 L 1285 246 L 1288 244 L 1290 244 L 1296 240 L 1300 236 L 1304 229 L 1304 227 L 1305 226 L 1305 221 L 1288 221 L 1285 227 L 1280 231 L 1278 231 L 1277 232 L 1269 232 L 1268 231 L 1266 231 L 1261 227 L 1257 219 L 1257 215 L 1256 214 L 1256 205 L 1257 204 L 1258 197 L 1262 191 L 1270 187 L 1277 187 L 1282 189 L 1285 192 L 1288 199 L 1305 198 L 1305 194 L 1304 193 L 1303 188 L 1299 182 L 1293 177 L 1285 173 L 1282 173 L 1281 172 L 1265 172 L 1264 173 Z M 889 173 L 890 174 L 892 182 L 894 185 L 895 190 L 897 193 L 899 201 L 901 204 L 901 206 L 902 207 L 904 215 L 906 218 L 907 223 L 909 226 L 909 228 L 910 229 L 912 237 L 914 240 L 915 245 L 916 246 L 936 246 L 939 236 L 941 233 L 942 228 L 946 220 L 947 215 L 949 212 L 951 204 L 953 201 L 954 196 L 956 193 L 957 188 L 959 185 L 959 183 L 961 180 L 963 173 L 944 173 L 940 186 L 938 189 L 938 192 L 937 193 L 928 222 L 926 224 L 925 223 L 925 221 L 923 217 L 923 214 L 922 213 L 920 205 L 918 202 L 917 196 L 916 195 L 916 193 L 915 192 L 915 190 L 914 189 L 909 173 Z M 772 155 L 772 172 L 771 173 L 760 173 L 759 174 L 760 175 L 759 187 L 771 187 L 772 188 L 772 231 L 773 232 L 773 235 L 775 239 L 779 243 L 783 245 L 785 245 L 786 246 L 791 246 L 792 247 L 806 246 L 806 231 L 795 231 L 790 225 L 790 188 L 791 187 L 806 187 L 806 173 L 791 173 L 790 172 L 790 155 Z M 112 175 L 115 170 L 116 166 L 123 156 L 128 156 L 129 157 L 137 159 L 149 165 L 160 173 L 171 185 L 175 193 L 176 198 L 174 200 L 154 200 L 153 199 L 142 199 L 141 198 L 130 197 L 129 196 L 125 196 L 124 195 L 116 193 L 110 189 L 110 183 L 111 182 Z M 130 148 L 144 138 L 146 138 L 149 136 L 151 136 L 155 134 L 164 133 L 180 148 L 186 157 L 191 167 L 191 169 L 194 176 L 195 184 L 196 185 L 196 194 L 197 196 L 195 198 L 184 199 L 183 198 L 183 195 L 182 194 L 181 189 L 177 181 L 164 167 L 151 158 L 141 153 L 131 150 Z M 110 199 L 111 198 L 121 202 L 124 202 L 129 204 L 133 204 L 134 205 L 141 205 L 142 206 L 154 206 L 155 207 L 168 207 L 169 206 L 174 206 L 175 207 L 175 209 L 170 218 L 157 230 L 144 236 L 141 236 L 136 238 L 130 238 L 122 230 L 118 224 L 112 211 L 112 207 L 111 206 Z M 971 173 L 971 246 L 989 246 L 990 245 L 990 174 L 989 173 Z M 1033 187 L 1040 187 L 1045 189 L 1051 195 L 1054 203 L 1054 216 L 1053 217 L 1053 220 L 1051 224 L 1045 230 L 1040 232 L 1033 232 L 1028 230 L 1023 225 L 1019 214 L 1019 206 L 1020 205 L 1020 201 L 1023 194 L 1028 189 Z M 196 206 L 195 220 L 194 221 L 194 224 L 193 225 L 191 233 L 185 244 L 176 254 L 162 254 L 161 253 L 156 253 L 150 250 L 148 250 L 142 247 L 140 245 L 143 243 L 149 242 L 164 234 L 179 218 L 180 214 L 182 211 L 182 208 L 184 206 L 188 206 L 189 205 L 195 205 Z M 177 132 L 178 133 L 184 133 L 185 134 L 188 134 L 189 135 L 194 136 L 204 141 L 215 150 L 215 157 L 214 158 L 214 163 L 213 164 L 212 174 L 211 175 L 211 180 L 210 181 L 210 194 L 209 195 L 207 195 L 206 196 L 204 196 L 203 195 L 202 181 L 201 180 L 201 177 L 200 176 L 200 173 L 199 172 L 197 164 L 187 146 L 176 134 Z M 400 203 L 401 202 L 427 202 L 431 204 L 434 207 L 437 215 L 437 218 L 435 223 L 430 228 L 425 230 L 401 230 L 400 229 Z M 400 161 L 401 160 L 423 160 L 424 161 L 426 161 L 430 164 L 433 170 L 433 177 L 431 181 L 428 184 L 424 186 L 420 186 L 419 187 L 401 187 L 400 186 Z M 183 120 L 200 111 L 202 111 L 209 107 L 211 107 L 214 105 L 218 104 L 219 105 L 219 108 L 221 113 L 221 117 L 223 122 L 223 126 L 224 127 L 224 131 L 225 132 L 225 136 L 226 137 L 226 142 L 227 143 L 227 145 L 226 146 L 221 141 L 208 132 Z M 159 120 L 138 130 L 123 140 L 118 145 L 116 144 L 117 135 L 118 134 L 118 129 L 119 128 L 119 124 L 121 119 L 121 115 L 125 104 L 128 106 L 130 106 L 138 110 L 140 110 Z M 209 203 L 210 204 L 212 218 L 215 225 L 217 235 L 203 246 L 195 250 L 191 251 L 190 249 L 192 247 L 196 239 L 196 237 L 198 234 L 198 232 L 200 228 L 200 225 L 202 220 L 202 216 L 203 215 L 203 204 L 204 203 Z M 114 238 L 115 237 L 124 246 L 135 254 L 138 255 L 142 258 L 144 258 L 150 261 L 148 263 L 145 263 L 142 265 L 126 270 L 120 273 L 118 271 L 118 267 L 117 266 L 117 259 L 116 258 Z M 228 239 L 228 245 L 227 246 L 227 254 L 226 255 L 225 266 L 224 267 L 224 271 L 222 273 L 221 272 L 207 268 L 204 266 L 202 266 L 199 264 L 197 264 L 193 262 L 194 260 L 201 258 L 210 253 L 217 248 L 227 238 Z M 483 226 L 483 222 L 484 220 L 489 216 L 491 216 L 492 215 L 511 215 L 512 216 L 510 226 L 502 233 L 499 233 L 498 234 L 492 234 L 491 233 L 489 233 L 484 229 L 484 227 Z M 703 199 L 707 191 L 712 187 L 714 187 L 715 186 L 725 186 L 729 188 L 733 192 L 735 196 L 736 201 L 735 202 L 704 202 L 703 201 Z M 1101 199 L 1105 191 L 1107 189 L 1113 186 L 1122 186 L 1123 187 L 1125 187 L 1130 191 L 1133 197 L 1133 201 L 1132 202 L 1102 202 L 1101 201 Z M 1331 200 L 1334 193 L 1339 188 L 1343 186 L 1352 186 L 1353 187 L 1355 187 L 1362 194 L 1362 196 L 1363 197 L 1363 201 L 1362 202 L 1332 202 Z M 977 142 L 971 147 L 970 149 L 970 156 L 975 162 L 977 162 L 978 163 L 983 163 L 987 161 L 990 158 L 990 156 L 991 155 L 991 150 L 989 146 L 986 143 L 984 142 Z M 223 159 L 229 170 L 229 172 L 232 179 L 232 184 L 233 185 L 233 187 L 231 189 L 218 193 L 217 192 L 217 180 L 218 179 L 218 174 L 220 169 L 221 161 Z M 101 172 L 102 173 L 101 174 L 101 182 L 100 183 L 100 202 L 101 203 L 101 205 L 100 206 L 83 189 L 83 188 L 92 179 L 93 179 L 100 172 Z M 242 171 L 260 188 L 260 189 L 251 198 L 250 198 L 244 205 L 242 204 L 243 203 L 243 186 L 242 185 L 242 176 L 241 175 L 241 172 Z M 232 196 L 233 197 L 233 201 L 232 202 L 231 211 L 227 219 L 226 223 L 223 225 L 221 222 L 221 220 L 219 216 L 219 213 L 217 208 L 217 202 L 219 200 Z M 227 238 L 228 237 L 229 238 L 228 239 Z"/>
  </g>
</svg>
